<?xml version="1.0" encoding="iso-8859-1"?>
<!-- Uploaded to: SVG Repo, www.svgrepo.com, Generator: SVG Repo Mixer Tools -->
<svg version="1.1" id="Layer_1" xmlns="http://www.w3.org/2000/svg" xmlns:xlink="http://www.w3.org/1999/xlink" 
	 viewBox="0 0 512 512" xml:space="preserve">
<path d="M473.56,397.58V103.228c0-7.04-5.76-12.8-12.8-12.8H51.32c-7.04,0-12.8,5.76-12.8,12.8V397.58
	C38.528,397.58,474.632,397.58,473.56,397.58z"/>
<rect x="54.52" y="106.428" style="fill:#E21B1B;" width="403.04" height="275.152"/>
<rect y="397.58" style="fill:#D8D8D8;" width="511.912" height="8"/>
<polygon style="fill:#AAAAAA;" points="486.408,421.572 25.688,421.572 0.088,405.58 512,405.58 "/>
<g style="opacity:0.7;">
	<path style="fill:#FFFFFF;" d="M298.992,397.58H212.92c0.816,4.488,4.824,8,9.832,8h66.4
		C294.168,405.58,298.176,402.068,298.992,397.58z"/>
</g>
<path style="fill:#FFFFFF;" d="M247.696,159.628c-51.36,0-92.992,41.632-92.992,92.992s41.632,92.992,92.992,92.992
	c51.336,0,92.952-41.6,92.984-92.92h-92.984V159.628z"/>
<path d="M330.088,170.3l-65.784,65.784h92.984c0-0.024,0-0.048,0-0.064C357.288,210.356,346.896,187.124,330.088,170.3z"/>
<path style="fill:#DDDDDD;" d="M264.304,143.028v93.056l65.784-65.784C313.256,153.452,289.992,143.028,264.304,143.028z"/>
</svg>